<?xml version="1.0" encoding="iso-8859-1"?>
<!-- Generator: Adobe Illustrator 16.0.0, SVG Export Plug-In . SVG Version: 6.00 Build 0)  -->
<!DOCTYPE svg PUBLIC "-//W3C//DTD SVG 1.1//EN" "http://www.w3.org/Graphics/SVG/1.1/DTD/svg11.dtd">
<svg xmlns="http://www.w3.org/2000/svg" xmlns:xlink="http://www.w3.org/1999/xlink" version="1.1" id="Capa_1" x="0px" y="0px" width="512px" height="512px" viewBox="0 0 433.447 433.447" style="enable-background:new 0 0 433.447 433.447;" xml:space="preserve">
<g>
	<path d="M247.363,26.21h-60.218L217.254,0L247.363,26.21z M411.209,167.09v262.128c0,2.336-1.893,4.229-4.222,4.229H26.464   c-2.332,0-4.226-1.894-4.226-4.229V167.09c0-2.336,1.894-4.23,4.226-4.23h3.703l54.488-47.429v45.377l-19.199,16.827l25.355,19.045   l125.912,92.339l125.913-92.339l26.062-20.373l-20.691-17.997v-44.487l56.328,49.037h2.655   C409.316,162.86,411.209,164.753,411.209,167.09z M377.389,213.145L219.219,329.13c-1.488,1.088-3.505,1.088-4.999,0   L56.055,213.145V399.62h321.329V213.145H377.389z M111.186,51.778h212.537v142.701c5.588-3.783,11.191-7.52,16.812-11.22V34.968   H93.984V187.38l16.811,13.139L111.186,51.778z" fill="#0051d9"/>
</g>
<g>
</g>
<g>
</g>
<g>
</g>
<g>
</g>
<g>
</g>
<g>
</g>
<g>
</g>
<g>
</g>
<g>
</g>
<g>
</g>
<g>
</g>
<g>
</g>
<g>
</g>
<g>
</g>
<g>
</g>
</svg>
