<?xml version="1.0" encoding="iso-8859-1"?>
<!-- Generator: Adobe Illustrator 19.0.0, SVG Export Plug-In . SVG Version: 6.00 Build 0)  -->
<svg xmlns="http://www.w3.org/2000/svg" xmlns:xlink="http://www.w3.org/1999/xlink" version="1.1" id="Capa_1" x="0px" y="0px" viewBox="0 0 446.784 446.784" style="enable-background:new 0 0 446.784 446.784;" xml:space="preserve" width="512px" height="512px">
<g>
	<g>
		<path d="M85.512,72.312l-7.616-10.656c-2.777-3.594-7.942-4.257-11.536-1.48c-0.554,0.428-1.052,0.926-1.48,1.48l-7.6,10.648    c-11.669,16.266-17.927,35.789-17.888,55.808v6.672h64v-6.672C103.428,108.098,97.174,88.578,85.512,72.312z M79.392,118.784h-16    v-16h16V118.784z" fill="#1a6ce8"/>
	</g>
</g>
<g>
	<g>
		<path d="M389.512,72.312l-7.616-10.656c-2.777-3.594-7.942-4.257-11.536-1.48c-0.554,0.428-1.052,0.926-1.48,1.48l-7.6,10.648    c-11.669,16.266-17.927,35.789-17.888,55.808v6.672h64v-6.672C407.428,108.098,401.174,88.578,389.512,72.312z M383.392,118.784    h-16v-16h16V118.784z" fill="#1a6ce8"/>
	</g>
</g>
<g>
	<g>
		<path d="M223.392,58.312c-10.321,11.147-19.408,23.375-27.104,36.472h54.208C242.8,81.687,233.713,69.459,223.392,58.312z" fill="#1a6ce8"/>
	</g>
</g>
<g>
	<g>
		<rect x="39.392" y="150.784" width="64" height="48" fill="#1a6ce8"/>
	</g>
</g>
<g>
	<g>
		<path d="M39.392,278.784v64c22.905,0.008,45.255-7.052,64-20.216v-43.784H39.392z" fill="#1a6ce8"/>
	</g>
</g>
<g>
	<g>
		<rect x="39.392" y="214.784" width="64" height="48" fill="#1a6ce8"/>
	</g>
</g>
<g>
	<g>
		<rect x="343.392" y="150.784" width="64" height="48" fill="#1a6ce8"/>
	</g>
</g>
<g>
	<g>
		<path d="M242.936,11.168L223.392,0l-19.544,11.2c-52.156,29.895-84.363,85.38-84.456,145.496v152.32    c20.513-20.872,32.006-48.967,32-78.232v-29.496c-0.163-60.105,23.726-117.777,66.344-160.16c3.174-3.001,8.138-3.001,11.312,0    c42.618,42.383,66.507,100.055,66.344,160.16v29.496c-0.006,29.265,11.487,57.36,32,78.232v-152.32    C327.311,96.568,295.102,41.069,242.936,11.168z" fill="#1a6ce8"/>
	</g>
</g>
<g>
	<g>
		<path d="M343.392,278.784v43.784c18.745,13.164,41.095,20.224,64,20.216v-64H343.392z" fill="#1a6ce8"/>
	</g>
</g>
<g>
	<g>
		<rect x="343.392" y="214.784" width="64" height="48" fill="#1a6ce8"/>
	</g>
</g>
<g>
	<g>
		<circle cx="223.392" cy="166.784" r="16" fill="#1a6ce8"/>
	</g>
</g>
<g>
	<g>
		<path d="M399.392,358.784c-66.274,0-120-53.726-120-120v-37.496c0.047-31.312-6.921-62.237-20.392-90.504h-71.2    c-13.477,28.265-20.45,59.19-20.408,90.504v37.496c0,66.274-53.726,120-120,120c-17.673,0-32,14.327-32,32v24h72v24    c0,4.418,3.582,8,8,8h48c4.418,0,8-3.582,8-8v-24h24v-8h24v40h48v-40h24v8h24v24c0,4.418,3.582,8,8,8h48c4.418,0,8-3.582,8-8v-24    h72v-24C431.392,373.111,417.065,358.784,399.392,358.784z M231.392,398.784h-16v-176h16V398.784z M223.392,198.784    c-17.673,0-32-14.327-32-32s14.327-32,32-32c17.673,0,32,14.327,32,32S241.065,198.784,223.392,198.784z" fill="#1a6ce8"/>
	</g>
</g>
<g>
</g>
<g>
</g>
<g>
</g>
<g>
</g>
<g>
</g>
<g>
</g>
<g>
</g>
<g>
</g>
<g>
</g>
<g>
</g>
<g>
</g>
<g>
</g>
<g>
</g>
<g>
</g>
<g>
</g>
</svg>
