<?xml version="1.0" encoding="iso-8859-1"?>
<!-- Generator: Adobe Illustrator 19.0.0, SVG Export Plug-In . SVG Version: 6.00 Build 0)  -->
<svg xmlns="http://www.w3.org/2000/svg" xmlns:xlink="http://www.w3.org/1999/xlink" version="1.1" id="Capa_1" x="0px" y="0px" viewBox="0 0 512.139 512.139" style="enable-background:new 0 0 512.139 512.139;" xml:space="preserve" width="512px" height="512px">
<g>
	<g>
		<g>
			<path d="M448.059,161.621c0-0.528,0-1.072,0-1.6c-0.053-52.997-43.003-95.947-96-96c-7.608,0.005-15.187,0.924-22.576,2.736     c-42.735-67.071-131.751-86.8-198.822-44.064C92.378,47.085,67.838,88.1,64.443,133.365     C14.375,150.808-12.073,205.536,5.37,255.604c13.442,38.583,49.831,64.431,90.689,64.417v-32     c-35.346,0.036-64.029-28.589-64.064-63.936c-0.031-30.461,21.412-56.723,51.264-62.784l12.8-2.592v-14.688     c0.105-61.856,50.333-111.915,112.189-111.81c41.997,0.071,80.425,23.631,99.539,61.026l6.672,13.072l13.6-5.488     c7.612-3.144,15.764-4.775,24-4.8c35.346,0,64,28.654,64,64c0.007,4.343-0.432,8.675-1.312,12.928l-4.08,19.792l20.192-0.56     c0.896,0,1.776-0.128,1.2-0.16c26.51,0,48,21.49,48,48c0,26.51-21.49,48-48,48h-48v32h48c44.183,0.044,80.036-35.737,80.08-79.92     C512.178,202.025,485.374,169.198,448.059,161.621z" fill="#1a6ce8"/>
			<rect x="224.059" y="160.021" width="32" height="32" fill="#1a6ce8"/>
			<rect x="224.059" y="96.021" width="32" height="32" fill="#1a6ce8"/>
			<path d="M240.059,304.021c-35.346,0-64,28.654-64,64c0,35.346,28.654,64,64,64c35.346,0,64-28.654,64-64     C304.059,332.675,275.405,304.021,240.059,304.021z M240.059,400.021c-17.673,0-32-14.327-32-32c0-17.673,14.327-32,32-32     c17.673,0,32,14.327,32,32C272.059,385.694,257.732,400.021,240.059,400.021z" fill="#1a6ce8"/>
			<path d="M353.563,313.445l7.264-28.32l-37.872-37.872l-28.32,7.264l-12.912-5.344l-14.88-25.152h-53.568l-14.88,25.136     l-12.912,5.36l-28.32-7.264l-37.872,37.872l7.264,28.32l-5.344,12.912l-25.152,14.88v53.568l25.136,14.88l5.36,12.912     l-7.264,28.32l37.872,37.872l28.32-7.264l12.912,5.344l14.88,25.152h53.568l14.88-25.136l12.912-5.36l28.32,7.264l37.872-37.872     l-7.264-28.32l5.344-12.912l25.152-14.88v-53.568l-25.136-14.88L353.563,313.445z M352.059,376.565l-18.624,11.008l-13.52,32.624     l5.392,20.992l-12.08,12.08l-20.992-5.376l-32.624,13.504l-11.008,18.624h-17.088l-11.008-18.624l-32.624-13.52l-20.992,5.392     l-12.08-12.08l5.376-20.992l-13.504-32.624l-18.624-11.008v-17.088l18.624-11.008l13.52-32.624l-5.392-20.992l12.08-12.08     l20.992,5.376l32.624-13.504l11.008-18.624h17.088l11.008,18.624l32.624,13.52l20.992-5.392l12.08,12.08l-5.376,20.992     l13.504,32.624l18.624,11.008V376.565z" fill="#1a6ce8"/>
		</g>
	</g>
</g>
<g>
</g>
<g>
</g>
<g>
</g>
<g>
</g>
<g>
</g>
<g>
</g>
<g>
</g>
<g>
</g>
<g>
</g>
<g>
</g>
<g>
</g>
<g>
</g>
<g>
</g>
<g>
</g>
<g>
</g>
</svg>
