<?xml version="1.0" encoding="iso-8859-1"?>
<!-- Generator: Adobe Illustrator 19.0.0, SVG Export Plug-In . SVG Version: 6.00 Build 0)  -->
<svg xmlns="http://www.w3.org/2000/svg" xmlns:xlink="http://www.w3.org/1999/xlink" version="1.1" id="Capa_1" x="0px" y="0px" viewBox="0 0 446.624 446.624" style="enable-background:new 0 0 446.624 446.624;" xml:space="preserve" width="512px" height="512px">
<g>
	<g>
		<path d="M258.624,0c-101.616,0-184,82.384-184,184c0,41.296,13.776,79.296,36.752,110L4,401.376l45.248,45.248L157.952,337.92    C186.896,356.88,221.44,368,258.624,368c101.616,0,184-82.384,184-184S360.24,0,258.624,0z M258.624,320    c-74.992,0-136-61.008-136-136s61.008-136,136-136s136,61.008,136,136S333.616,320,258.624,320z" fill="#1a6ce8"/>
	</g>
</g>
<g>
	<g>
		<rect x="170.625" y="152" width="48" height="112" fill="#1a6ce8"/>
	</g>
</g>
<g>
	<g>
		<rect x="234.625" y="88" width="48" height="176" fill="#1a6ce8"/>
	</g>
</g>
<g>
	<g>
		<rect x="298.625" y="120" width="48" height="144" fill="#1a6ce8"/>
	</g>
</g>
<g>
</g>
<g>
</g>
<g>
</g>
<g>
</g>
<g>
</g>
<g>
</g>
<g>
</g>
<g>
</g>
<g>
</g>
<g>
</g>
<g>
</g>
<g>
</g>
<g>
</g>
<g>
</g>
<g>
</g>
</svg>
